<?xml version="1.0" encoding="UTF-8"?>
<svg xmlns="http://www.w3.org/2000/svg" xmlns:xlink="http://www.w3.org/1999/xlink" width="248pt" height="248pt" viewBox="0 0 248 248" version="1.1">
<g id="surface1">
<path style=" stroke:none;fill-rule:nonzero;fill:rgb(0%,0%,0%);fill-opacity:1;" d="M 188 82 C 188 46.710938 159.289062 18 124 18 C 88.710938 18 60 46.710938 60 82 C 60 117.289062 88.710938 146 124 146 C 159.289062 146 188 117.289062 188 82 Z M 124 138 C 93.121094 138 68 112.878906 68 82 C 68 51.121094 93.121094 26 124 26 C 154.878906 26 180 51.121094 180 82 C 180 112.878906 154.878906 138 124 138 Z M 124 138 "/>
<path style=" stroke:none;fill-rule:nonzero;fill:rgb(0%,0%,0%);fill-opacity:1;" d="M 196 78 L 204 78 L 204 86 L 196 86 Z M 196 78 "/>
<path style=" stroke:none;fill-rule:nonzero;fill:rgb(0%,0%,0%);fill-opacity:1;" d="M 212 78 L 220 78 L 220 86 L 212 86 Z M 212 78 "/>
<path style=" stroke:none;fill-rule:nonzero;fill:rgb(0%,0%,0%);fill-opacity:1;" d="M 28 78 L 36 78 L 36 86 L 28 86 Z M 28 78 "/>
<path style=" stroke:none;fill-rule:nonzero;fill:rgb(0%,0%,0%);fill-opacity:1;" d="M 44 78 L 52 78 L 52 86 L 44 86 Z M 44 78 "/>
<path style=" stroke:none;fill-rule:nonzero;fill:rgb(0%,0%,0%);fill-opacity:1;" d="M 120 154 L 128 154 L 128 162 L 120 162 Z M 120 154 "/>
<path style=" stroke:none;fill-rule:nonzero;fill:rgb(0%,0%,0%);fill-opacity:1;" d="M 120 2 L 128 2 L 128 10 L 120 10 Z M 120 2 "/>
<path style=" stroke:none;fill-rule:nonzero;fill:rgb(0%,0%,0%);fill-opacity:1;" d="M 195.011719 70.628906 L 202.910156 69.371094 C 197.476562 35.164062 170.835938 8.527344 136.632812 3.09375 L 135.375 10.992188 C 166.152344 15.882812 190.117188 39.847656 195.011719 70.628906 Z M 195.011719 70.628906 "/>
<path style=" stroke:none;fill-rule:nonzero;fill:rgb(0%,0%,0%);fill-opacity:1;" d="M 112.628906 10.988281 L 111.371094 3.089844 C 77.164062 8.523438 50.527344 35.164062 45.09375 69.367188 L 52.992188 70.625 C 57.882812 39.847656 81.847656 15.882812 112.628906 10.988281 Z M 112.628906 10.988281 "/>
<path style=" stroke:none;fill-rule:nonzero;fill:rgb(0%,0%,0%);fill-opacity:1;" d="M 112.628906 153.011719 C 81.847656 148.117188 57.878906 124.152344 52.988281 93.371094 L 45.089844 94.628906 C 50.523438 128.835938 77.164062 155.472656 111.367188 160.90625 Z M 112.628906 153.011719 "/>
<path style=" stroke:none;fill-rule:nonzero;fill:rgb(0%,0%,0%);fill-opacity:1;" d="M 195.011719 93.371094 C 190.117188 124.152344 166.152344 148.121094 135.371094 153.011719 L 136.628906 160.910156 C 170.835938 155.476562 197.472656 128.835938 202.90625 94.632812 Z M 195.011719 93.371094 "/>
<path style=" stroke:none;fill-rule:nonzero;fill:rgb(0%,0%,0%);fill-opacity:1;" d="M 232 206.402344 L 232 190 L 128 190 L 128 170 L 120 170 L 120 190 L 16 190 L 16 206.402344 C 6.882812 208.265625 0 216.34375 0 226 C 0 237.027344 8.972656 246 20 246 C 31.027344 246 40 237.027344 40 226 C 40 216.34375 33.117188 208.265625 24 206.402344 L 24 198 L 120 198 L 120 206.402344 C 110.882812 208.265625 104 216.339844 104 226 C 104 237.027344 112.972656 246 124 246 C 135.027344 246 144 237.027344 144 226 C 144 216.34375 137.117188 208.265625 128 206.402344 L 128 198 L 224 198 L 224 206.402344 C 214.882812 208.265625 208 216.339844 208 226 C 208 237.027344 216.972656 246 228 246 C 239.027344 246 248 237.027344 248 226 C 248 216.34375 241.117188 208.265625 232 206.402344 Z M 32 226 C 32 232.617188 26.617188 238 20 238 C 13.382812 238 8 232.617188 8 226 C 8 219.382812 13.382812 214 20 214 C 26.617188 214 32 219.382812 32 226 Z M 136 226 C 136 232.617188 130.617188 238 124 238 C 117.382812 238 112 232.617188 112 226 C 112 219.382812 117.382812 214 124 214 C 130.617188 214 136 219.382812 136 226 Z M 228 238 C 221.382812 238 216 232.617188 216 226 C 216 219.382812 221.382812 214 228 214 C 234.617188 214 240 219.382812 240 226 C 240 232.617188 234.617188 238 228 238 Z M 228 238 "/>
<path style=" stroke:none;fill-rule:nonzero;fill:rgb(0%,0%,0%);fill-opacity:1;" d="M 212 110 L 220 110 L 220 150 L 212 150 Z M 212 110 "/>
<path style=" stroke:none;fill-rule:nonzero;fill:rgb(0%,0%,0%);fill-opacity:1;" d="M 212 158 L 220 158 L 220 166 L 212 166 Z M 212 158 "/>
<path style=" stroke:none;fill-rule:nonzero;fill:rgb(0%,0%,0%);fill-opacity:1;" d="M 196 138 L 204 138 L 204 158 L 196 158 Z M 196 138 "/>
<path style=" stroke:none;fill-rule:nonzero;fill:rgb(0%,0%,0%);fill-opacity:1;" d="M 196 166 L 204 166 L 204 174 L 196 174 Z M 196 166 "/>
<path style=" stroke:none;fill-rule:nonzero;fill:rgb(0%,0%,0%);fill-opacity:1;" d="M 180 158 L 188 158 L 188 166 L 180 166 Z M 180 158 "/>
<path style=" stroke:none;fill-rule:nonzero;fill:rgb(0%,0%,0%);fill-opacity:1;" d="M 180 174 L 188 174 L 188 182 L 180 182 Z M 180 174 "/>
<path style=" stroke:none;fill-rule:nonzero;fill:rgb(0%,0%,0%);fill-opacity:1;" d="M 28 110 L 36 110 L 36 150 L 28 150 Z M 28 110 "/>
<path style=" stroke:none;fill-rule:nonzero;fill:rgb(0%,0%,0%);fill-opacity:1;" d="M 28 158 L 36 158 L 36 166 L 28 166 Z M 28 158 "/>
<path style=" stroke:none;fill-rule:nonzero;fill:rgb(0%,0%,0%);fill-opacity:1;" d="M 44 138 L 52 138 L 52 158 L 44 158 Z M 44 138 "/>
<path style=" stroke:none;fill-rule:nonzero;fill:rgb(0%,0%,0%);fill-opacity:1;" d="M 44 166 L 52 166 L 52 174 L 44 174 Z M 44 166 "/>
<path style=" stroke:none;fill-rule:nonzero;fill:rgb(0%,0%,0%);fill-opacity:1;" d="M 60 158 L 68 158 L 68 166 L 60 166 Z M 60 158 "/>
<path style=" stroke:none;fill-rule:nonzero;fill:rgb(0%,0%,0%);fill-opacity:1;" d="M 60 174 L 68 174 L 68 182 L 60 182 Z M 60 174 "/>
<path style=" stroke:none;fill-rule:nonzero;fill:rgb(0%,0%,0%);fill-opacity:1;" d="M 130 42 L 128 42 L 128 34 L 120 34 L 120 42 L 118 42 C 105.871094 42 96 51.871094 96 64 C 96 76.128906 105.871094 86 118 86 L 130 86 C 137.71875 86 144 92.28125 144 100 C 144 107.71875 137.71875 114 130 114 L 118 114 C 110.28125 114 104 107.71875 104 100 L 104 98 L 96 98 L 96 100 C 96 112.128906 105.871094 122 118 122 L 120 122 L 120 130 L 128 130 L 128 122 L 130 122 C 142.128906 122 152 112.128906 152 100 C 152 87.871094 142.128906 78 130 78 L 118 78 C 110.28125 78 104 71.71875 104 64 C 104 56.28125 110.28125 50 118 50 L 130 50 C 137.71875 50 144 56.28125 144 64 L 144 66 L 152 66 L 152 64 C 152 51.871094 142.128906 42 130 42 Z M 130 42 "/>
</g>
</svg>
